# xmcd CD database file
#
# Track frame offsets:
#	150
#	12578
#	30220
#	50337
#	65753
#	81514
#	95721
#	115154
#	133257
#	147623
#	165901
#	181937
#
# Disc length: 2718 seconds
#
# Revision: 0
# Processed by: cddbd v1.5.1PL2 Copyright (c) Steve Scherf et al.
# Submitted via: CDex 1.51
#
DISCID=a70a9c0c
DTITLE=Billy Bridge - Post It Note Proposal
DYEAR=2002
DGENRE=Country
TTITLE0=Nothing Can Stop Me
TTITLE1=Malllee Dust
TTITLE2=Post It Note Proposal
TTITLE3=Forever Has Come To An End
TTITLE4=Its You
TTITLE5=Bill Bailey
TTITLE6=Honeymoon Wine
TTITLE7=One More Chance Once More
TTITLE8=Coleraine
TTITLE9=He'll have To Go
TTITLE10=Lonely Lonely Town
TTITLE11=Somebody Loves Here
EXTD=YEAR: 2002
EXTT0=
EXTT1=
EXTT2=
EXTT3=
EXTT4=
EXTT5=
EXTT6=
EXTT7=
EXTT8=
EXTT9=
EXTT10=
EXTT11=
PLAYORDER=
